<svg width="1242" height="3573" viewBox="0 0 1242 3573" fill="none" xmlns="http://www.w3.org/2000/svg">
<mask id="mask0_2_97" style="mask-type:alpha" maskUnits="userSpaceOnUse" x="0" y="0" width="1242" height="3573">
<rect width="1242" height="3573" fill="url(#paint0_linear_2_97)"/>
</mask>
<g mask="url(#mask0_2_97)">
<rect x="19" width="962.435" height="29" fill="white" fill-opacity="0.85"/>
<rect x="19" y="151" width="304.244" height="30" fill="white" fill-opacity="0.85"/>
<rect x="386.502" y="151" width="126.517" height="30" fill="white" fill-opacity="0.85"/>
<rect x="576.278" y="151" width="298.219" height="30" fill="white" fill-opacity="0.85"/>
<rect x="19" y="227" width="988.039" height="30" fill="white" fill-opacity="0.85"/>
<rect x="19" y="303" width="304.244" height="29" fill="white" fill-opacity="0.85"/>
<rect x="19" y="379" width="689.82" height="29" fill="white" fill-opacity="0.85"/>
<rect x="19" y="76" width="1223" height="29" fill="white" fill-opacity="0.85"/>
<rect x="19" y="450" width="1091.96" height="29" fill="white" fill-opacity="0.85"/>
<rect x="19" y="601" width="304.244" height="30" fill="white" fill-opacity="0.85"/>
<rect x="386.502" y="601" width="126.517" height="30" fill="white" fill-opacity="0.85"/>
<rect x="576.278" y="601" width="430.761" height="30" fill="white" fill-opacity="0.85"/>
<rect x="19" y="677" width="689.82" height="30" fill="white" fill-opacity="0.85"/>
<rect x="19" y="753" width="518.118" height="29" fill="white" fill-opacity="0.85"/>
<rect x="19" y="829" width="988.039" height="29" fill="white" fill-opacity="0.85"/>
<rect width="84.3448" height="29" transform="matrix(-1 0 0 1 1157.66 829)" fill="white" fill-opacity="0.85"/>
<rect x="19" y="526" width="185.257" height="29" fill="white" fill-opacity="0.85"/>
<rect x="19" y="905" width="893.151" height="29" fill="white" fill-opacity="0.85"/>
<rect x="19" y="1056" width="304.244" height="30" fill="white" fill-opacity="0.85"/>
<rect x="386.502" y="1056" width="771.153" height="30" fill="white" fill-opacity="0.85"/>
<rect x="19" y="1132" width="1091.96" height="30" fill="white" fill-opacity="0.85"/>
<rect x="19" y="1208" width="304.244" height="29" fill="white" fill-opacity="0.85"/>
<rect x="386.502" y="1208" width="189.776" height="29" fill="white" fill-opacity="0.85"/>
<rect x="19" y="1284" width="786.214" height="29" fill="white" fill-opacity="0.85"/>
<rect x="19" y="981" width="557.278" height="29" fill="white" fill-opacity="0.85"/>
<rect x="19" y="1360" width="933.818" height="29" fill="white" fill-opacity="0.85"/>
<rect x="19" y="1511" width="786.214" height="30" fill="white" fill-opacity="0.85"/>
<rect x="19" y="1587" width="632.586" height="30" fill="white" fill-opacity="0.85"/>
<rect x="708.82" y="1587" width="243.998" height="30" fill="white" fill-opacity="0.85"/>
<rect x="19" y="1663" width="432.267" height="29" fill="white" fill-opacity="0.85"/>
<rect x="19" y="1739" width="893.151" height="29" fill="white" fill-opacity="0.85"/>
<rect width="120.493" height="29" transform="matrix(-1 0 0 1 1073.31 1739)" fill="white" fill-opacity="0.85"/>
<rect x="19" y="1436" width="298.219" height="29" fill="white" fill-opacity="0.85"/>
<rect x="383.49" y="1436" width="192.788" height="29" fill="white" fill-opacity="0.85"/>
<rect x="630.5" y="1436" width="442.81" height="29" fill="white" fill-opacity="0.85"/>
<rect x="19" y="1815" width="757.597" height="29" fill="white" fill-opacity="0.85"/>
<rect x="19" y="1966" width="367.502" height="30" fill="white" fill-opacity="0.85"/>
<rect x="449.761" y="1965" width="126.517" height="30" fill="white" fill-opacity="0.85"/>
<rect x="19" y="2042" width="662.709" height="30" fill="white" fill-opacity="0.85"/>
<rect x="19" y="2118" width="432.267" height="29" fill="white" fill-opacity="0.85"/>
<rect x="19" y="2194" width="689.82" height="29" fill="white" fill-opacity="0.85"/>
<rect x="746.474" y="2194" width="326.836" height="29" fill="white" fill-opacity="0.85"/>
<rect x="19" y="1891" width="814.831" height="29" fill="white" fill-opacity="0.85"/>
<rect x="19" y="2270" width="391.601" height="29" fill="white" fill-opacity="0.85"/>
<rect x="19" y="2421" width="218.393" height="30" fill="white" fill-opacity="0.85"/>
<rect x="317.219" y="2421" width="429.255" height="30" fill="white" fill-opacity="0.85"/>
<rect x="19" y="2497" width="662.709" height="30" fill="white" fill-opacity="0.85"/>
<rect x="19" y="2573" width="391.601" height="29" fill="white" fill-opacity="0.85"/>
<rect x="19" y="2649" width="90.3695" height="29" fill="white" fill-opacity="0.85"/>
<rect x="171.122" y="2649" width="152.122" height="29" fill="white" fill-opacity="0.85"/>
<rect x="384.996" y="2649" width="90.3695" height="29" fill="white" fill-opacity="0.85"/>
<rect x="537.118" y="2649" width="268.096" height="29" fill="white" fill-opacity="0.85"/>
<rect x="19" y="2346" width="1138.66" height="29" fill="white" fill-opacity="0.85"/>
<rect x="19" y="2724" width="920.262" height="29" fill="white" fill-opacity="0.85"/>
<rect x="19" y="2875" width="304.244" height="30" fill="white" fill-opacity="0.85"/>
<rect x="386.502" y="2875" width="447.329" height="30" fill="white" fill-opacity="0.85"/>
<rect x="19" y="2951" width="632.586" height="30" fill="white" fill-opacity="0.85"/>
<rect x="19" y="3027" width="432.267" height="29" fill="white" fill-opacity="0.85"/>
<rect x="19" y="3103" width="988.039" height="29" fill="white" fill-opacity="0.85"/>
<rect x="19" y="2800" width="1223" height="29" fill="white" fill-opacity="0.85"/>
<rect x="19" y="3179" width="893.151" height="29" fill="white" fill-opacity="0.85"/>
<rect x="19" y="3330" width="218.393" height="30" fill="white" fill-opacity="0.85"/>
<rect x="312.701" y="3330" width="242.491" height="30" fill="white" fill-opacity="0.85"/>
<rect x="615.438" y="3330" width="521.131" height="30" fill="white" fill-opacity="0.85"/>
<rect x="19" y="3406" width="706.388" height="30" fill="white" fill-opacity="0.85"/>
<rect x="19" y="3482" width="536.192" height="29" fill="white" fill-opacity="0.85"/>
<rect x="615.438" y="3483" width="242.491" height="29" fill="white" fill-opacity="0.85"/>
<rect x="19" y="3558" width="632.586" height="29" fill="white" fill-opacity="0.85"/>
<rect x="19" y="3255" width="632.586" height="29" fill="white" fill-opacity="0.85"/>
<rect width="132.542" height="29" transform="matrix(-1 0 0 1 857.93 3255)" fill="white" fill-opacity="0.85"/>
</g>
<defs>
<linearGradient id="paint0_linear_2_97" x1="621" y1="0" x2="621" y2="3573" gradientUnits="userSpaceOnUse">
<stop stop-color="#FF0000" stop-opacity="0"/>
<stop offset="0.5" stop-color="#FF0000"/>
<stop offset="1" stop-color="#FF0000" stop-opacity="0"/>
</linearGradient>
</defs>
</svg>
